<svg aria-hidden="true" style="position: absolute; width: 0; height: 0; overflow: hidden;" version="1.1" xmlns="http://www.w3.org/2000/svg" xmlns:xlink="http://www.w3.org/1999/xlink">
<defs>
<symbol id="icon-slider-control" viewBox="0 0 32 32">
<path fill="#a5a5a9" style="fill: var(--color1, #a5a5a9)" d="M32 16c0 8.837-7.163 16-16 16s-16-7.163-16-16c0-8.837 7.163-16 16-16s16 7.163 16 16z"></path>
</symbol>
<symbol id="icon-arrow" viewBox="0 0 30 32">
<path fill="#883cda" style="fill: var(--color2, #883cda)" d="M0.845 25.904c-0.961 0.961-0.961 2.52 0 3.481s2.52 0.961 3.481 0l-3.481-3.481zM29.415 3.276c0-1.359-1.102-2.462-2.462-2.462h-22.154c-1.359 0-2.462 1.102-2.462 2.462s1.102 2.462 2.462 2.462h19.692v19.692c0 1.36 1.102 2.462 2.462 2.462s2.462-1.102 2.462-2.462v-22.154zM4.326 29.385l24.368-24.368-3.481-3.481-24.368 24.368 3.481 3.481z"></path>
</symbol>
<symbol id="icon-burger" viewBox="0 0 70 32">
<path fill="#fff" style="fill: var(--color3, #fff)" d="M5.333 0h59.733c2.946 0 5.333 2.388 5.333 5.333s-2.388 5.333-5.333 5.333h-59.733c-2.946 0-5.333-2.388-5.333-5.333s2.388-5.333 5.333-5.333z"></path>
<path fill="#fff" style="fill: var(--color3, #fff)" d="M5.333 21.333h59.733c2.946 0 5.333 2.388 5.333 5.333s-2.388 5.333-5.333 5.333h-59.733c-2.946 0-5.333-2.388-5.333-5.333s2.388-5.333 5.333-5.333z"></path>
</symbol>
<symbol id="icon-logo" viewBox="0 0 32 32">
<path fill="#883cda" style="fill: var(--color2, #883cda)" d="M8.155 8.957c-2.279 1.044-7.075 2.101-8.025-2.022s3.545-5.923 5.911-6.307c5.056-0.582 15.922-1.802 21.99 2.336 0.511 0.398 1.266 1.103 1.893 2.018 3.495 5.717 1.71 16.077 0.856 21.034l-0.049 0.283c-0.513 2.318-2.573 6.666-6.704 5.509s-2.808-5.841-1.631-8.038c1.087-2.077 2.081-7.138 1.45-7.767-0.272-0.271-1.812-1.716-6.885 6.503-3.761 6.093-8.332 4.694-10.568 2.946l-0.517-0.508c-1.762-2.152-3.4-7.018 3.271-10.574 8.559-4.562 7.182-6.152 6.923-6.434-0.602-0.653-5.76 0.061-7.914 1.022z"></path>
</symbol>
</defs>
</svg>
