<svg aria-hidden="true" style="position: absolute; width: 0; height: 0; overflow: hidden;" version="1.1" xmlns="http://www.w3.org/2000/svg" xmlns:xlink="http://www.w3.org/1999/xlink">
<defs>
<symbol id="icon-google" viewBox="0 0 32 32">
<path fill="#fff" style="fill: var(--color1, #fff)" d="M0 16c0-8.837 7.163-16 16-16s16 7.163 16 16c0 8.837-7.163 16-16 16s-16-7.163-16-16zM13.072 15.543v1.737h2.883c-0.116 0.745-0.871 2.186-2.883 2.186-1.736 0-3.152-1.433-3.152-3.199s1.416-3.199 3.152-3.199c0.988 0 1.649 0.42 2.026 0.782l1.38-1.325c-0.886-0.825-2.033-1.325-3.406-1.325-2.81 0-5.084 2.265-5.084 5.067s2.273 5.067 5.084 5.067c2.934 0 4.88-2.056 4.88-4.951 0-0.333-0.036-0.586-0.080-0.84h-4.8zM22.513 15.543h1.453v1.448h-1.453v1.448h-1.452v-1.448h-1.453v-1.448h1.453v-1.448h1.452v1.448z"></path>
</symbol>
<symbol id="icon-whatsapp" viewBox="0 0 32 32">
<path fill="#fff" style="fill: var(--color1, #fff)" d="M0 16c0 8.837 7.163 16 16 16s16-7.163 16-16c0-8.837-7.163-16-16-16s-16 7.163-16 16zM26.041 15.388c-0.002 5.245-4.268 9.512-9.514 9.514h-0.004c-1.592-0.001-3.157-0.4-4.547-1.158l-5.044 1.323 1.35-4.93c-0.833-1.443-1.271-3.079-1.27-4.756 0.002-5.246 4.27-9.513 9.514-9.513 2.545 0.001 4.934 0.992 6.73 2.79s2.785 4.189 2.784 6.731z"></path>
<path fill="#fff" style="fill: var(--color1, #fff)" d="M9.218 22.809l2.993-0.785 0.289 0.171c1.214 0.721 2.606 1.102 4.025 1.102h0.003c4.359 0 7.906-3.547 7.908-7.908 0.001-2.113-0.821-4.1-2.314-5.594s-3.479-2.318-5.591-2.319c-4.362 0-7.909 3.547-7.911 7.907-0.001 1.494 0.417 2.949 1.209 4.208l0.188 0.299-0.799 2.918zM20.995 17.439c0.166 0.080 0.278 0.134 0.326 0.214 0.059 0.099 0.059 0.575-0.139 1.131s-1.148 1.062-1.605 1.13c-0.41 0.061-0.928 0.087-1.497-0.094-0.345-0.11-0.788-0.256-1.355-0.501-2.229-0.962-3.735-3.122-4.019-3.531-0.020-0.029-0.034-0.049-0.042-0.059l-0.002-0.003c-0.126-0.168-0.969-1.293-0.969-2.457 0-1.095 0.538-1.669 0.786-1.933 0.017-0.018 0.033-0.035 0.046-0.050 0.218-0.238 0.476-0.297 0.634-0.297s0.317 0.002 0.456 0.008c0.017 0.001 0.035 0.001 0.053 0.001 0.139-0.001 0.311-0.002 0.482 0.407 0.066 0.158 0.162 0.391 0.263 0.637 0.204 0.498 0.431 1.048 0.47 1.128 0.059 0.119 0.099 0.258 0.020 0.416-0.012 0.024-0.023 0.046-0.033 0.068-0.059 0.121-0.103 0.211-0.204 0.329-0.040 0.046-0.081 0.096-0.122 0.146-0.082 0.1-0.164 0.199-0.235 0.27-0.119 0.119-0.243 0.247-0.104 0.485s0.616 1.016 1.322 1.647c0.76 0.678 1.42 0.964 1.755 1.109 0.065 0.028 0.118 0.051 0.157 0.071 0.238 0.119 0.376 0.099 0.515-0.060s0.594-0.694 0.753-0.932c0.158-0.238 0.317-0.198 0.535-0.119s1.387 0.654 1.624 0.773c0.046 0.023 0.090 0.044 0.13 0.064z"></path>
</symbol>
<symbol id="icon-telegram" viewBox="0 0 32 32">
<path fill="#fff" style="fill: var(--color1, #fff)" d="M0 16c0 8.837 7.163 16 16 16s16-7.163 16-16c0-8.837-7.163-16-16-16s-16 7.163-16 16zM13.067 23.333l0.272-4.078-0-0 7.419-6.695c0.326-0.289-0.071-0.43-0.503-0.168l-9.156 5.777-3.955-1.234c-0.854-0.262-0.86-0.849 0.192-1.27l15.412-5.943c0.704-0.32 1.383 0.169 1.115 1.246l-2.625 12.368c-0.183 0.879-0.714 1.089-1.45 0.683l-3.998-2.954-1.922 1.869c-0.006 0.006-0.012 0.012-0.018 0.018-0.215 0.209-0.393 0.382-0.782 0.382z"></path>
</symbol>
<symbol id="icon-twitter" viewBox="0 0 32 32">
<path fill="#fff" style="fill: var(--color1, #fff)" d="M16 0c-8.837 0-16 7.163-16 16s7.163 16 16 16c8.837 0 16-7.163 16-16s-7.163-16-16-16zM15.554 13.559l-0.034-0.554c-0.101-1.435 0.783-2.746 2.182-3.254 0.515-0.181 1.388-0.203 1.959-0.045 0.224 0.068 0.649 0.294 0.951 0.497l0.548 0.373 0.604-0.192c0.336-0.102 0.784-0.271 0.985-0.384 0.19-0.102 0.358-0.158 0.358-0.124 0 0.192-0.414 0.847-0.761 1.209-0.47 0.508-0.336 0.554 0.616 0.215 0.571-0.192 0.582-0.192 0.47 0.023-0.067 0.113-0.414 0.508-0.783 0.87-0.627 0.621-0.66 0.689-0.66 1.209 0 0.802-0.381 2.474-0.761 3.39-0.705 1.717-2.216 3.491-3.727 4.384-2.126 1.254-4.958 1.571-7.342 0.836-0.795-0.249-2.16-0.881-2.16-0.994 0-0.034 0.414-0.079 0.918-0.090 1.052-0.023 2.104-0.316 2.999-0.836l0.604-0.362-0.694-0.237c-0.985-0.339-1.869-1.119-2.093-1.853-0.067-0.237-0.045-0.249 0.582-0.249l0.649-0.011-0.548-0.26c-0.649-0.328-1.242-0.881-1.533-1.446-0.213-0.407-0.481-1.435-0.403-1.514 0.022-0.034 0.257 0.034 0.526 0.124 0.772 0.283 0.873 0.215 0.425-0.26-0.839-0.859-1.097-2.136-0.694-3.344l0.19-0.542 0.739 0.734c1.511 1.48 3.29 2.361 5.327 2.621l0.56 0.068z"></path>
</symbol>
<symbol id="icon-youtube" viewBox="0 0 32 32">
<path fill="#fff" style="fill: var(--color1, #fff)" d="M16 0c-8.837 0-16 7.163-16 16s7.163 16 16 16c8.837 0 16-7.163 16-16s-7.163-16-16-16zM22.668 10.499c0.734 0.202 1.313 0.795 1.509 1.549 0.357 1.367 0.357 4.218 0.357 4.218s0 2.851-0.357 4.218c-0.196 0.754-0.775 1.348-1.509 1.549-1.331 0.366-6.668 0.366-6.668 0.366s-5.337 0-6.668-0.366c-0.734-0.202-1.313-0.795-1.509-1.549-0.357-1.367-0.357-4.218-0.357-4.218s0-2.851 0.357-4.218c0.196-0.754 0.775-1.348 1.509-1.549 1.331-0.366 6.668-0.366 6.668-0.366s5.337 0 6.668 0.366z"></path>
<path fill="#fff" style="fill: var(--color1, #fff)" d="M14.4 19.201v-5.333l4.267 2.667-4.267 2.667z"></path>
</symbol>
<symbol id="icon-facebook" viewBox="0 0 32 32">
<path fill="#fff" style="fill: var(--color1, #fff)" d="M16 0c-8.837 0-16 7.163-16 16s7.163 16 16 16c8.837 0 16-7.163 16-16s-7.163-16-16-16zM17.668 16.703v8.705h-3.602v-8.705h-1.799v-3h1.799v-1.801c0-2.447 1.016-3.902 3.903-3.902h2.403v3h-1.502c-1.124 0-1.198 0.419-1.198 1.202l-0.004 1.501h2.721l-0.319 3h-2.403z"></path>
</symbol>
<symbol id="icon-instagram" viewBox="0 0 32 32">
<path fill="#fff" style="fill: var(--color1, #fff)" d="M16 0c-8.837 0-16 7.163-16 16s7.163 16 16 16c8.837 0 16-7.163 16-16s-7.163-16-16-16zM12.482 7.518c0.91-0.041 1.201-0.052 3.519-0.052h-0.003c2.318 0 2.608 0.010 3.518 0.052 0.909 0.042 1.529 0.185 2.073 0.396 0.562 0.218 1.036 0.509 1.511 0.984s0.766 0.95 0.985 1.512c0.21 0.543 0.354 1.163 0.396 2.071 0.041 0.91 0.052 1.201 0.052 3.519s-0.011 2.608-0.052 3.518c-0.043 0.908-0.187 1.528-0.396 2.071-0.219 0.561-0.51 1.037-0.985 1.512s-0.95 0.767-1.511 0.985c-0.543 0.211-1.164 0.355-2.072 0.396-0.91 0.041-1.2 0.052-3.518 0.052s-2.608-0.010-3.518-0.052c-0.908-0.042-1.529-0.185-2.072-0.396-0.561-0.218-1.037-0.51-1.511-0.985s-0.766-0.95-0.984-1.512c-0.211-0.543-0.355-1.163-0.396-2.071-0.041-0.91-0.052-1.2-0.052-3.518s0.011-2.609 0.051-3.519c0.041-0.908 0.185-1.528 0.396-2.071 0.219-0.561 0.51-1.037 0.985-1.511s0.95-0.766 1.512-0.984c0.543-0.211 1.163-0.355 2.071-0.396z"></path>
<path fill="#fff" style="fill: var(--color1, #fff)" d="M15.235 9.002c0.149-0 0.309-0 0.481-0l0.284 0c2.278 0 2.549 0.008 3.448 0.049 0.832 0.038 1.284 0.177 1.584 0.294 0.398 0.155 0.682 0.34 0.981 0.638s0.483 0.583 0.639 0.981c0.117 0.3 0.256 0.752 0.294 1.584 0.041 0.9 0.050 1.17 0.050 3.447s-0.009 2.548-0.050 3.447c-0.038 0.832-0.177 1.284-0.294 1.584-0.155 0.398-0.34 0.682-0.639 0.98s-0.582 0.484-0.981 0.638c-0.3 0.117-0.752 0.256-1.584 0.294-0.9 0.041-1.17 0.050-3.448 0.050s-2.549-0.009-3.448-0.050c-0.832-0.038-1.284-0.177-1.585-0.294-0.398-0.155-0.683-0.34-0.981-0.638s-0.484-0.582-0.639-0.981c-0.117-0.3-0.256-0.752-0.294-1.584-0.041-0.9-0.049-1.17-0.049-3.449s0.008-2.548 0.049-3.447c0.038-0.832 0.177-1.284 0.294-1.584 0.155-0.398 0.34-0.683 0.639-0.981s0.583-0.484 0.981-0.639c0.301-0.117 0.752-0.256 1.585-0.294 0.787-0.036 1.092-0.046 2.683-0.048v0.002zM20.556 10.419c-0.565 0-1.024 0.458-1.024 1.024s0.459 1.024 1.024 1.024c0.565 0 1.024-0.459 1.024-1.024s-0.459-1.024-1.024-1.024v0zM11.618 15.998c0-2.42 1.962-4.382 4.382-4.382s4.382 1.962 4.382 4.382-1.961 4.381-4.381 4.381c-2.42 0-4.382-1.961-4.382-4.381z"></path>
<path fill="#fff" style="fill: var(--color1, #fff)" d="M16.001 13.156c1.571 0 2.845 1.274 2.845 2.844s-1.274 2.845-2.845 2.845c-1.571 0-2.845-1.274-2.845-2.845s1.274-2.845 2.845-2.845z"></path>
</symbol>
<symbol id="icon-arrow-2" viewBox="0 0 27 32">
<path d="M6.528 4.158l14.146 17.74 1.944-8.585 2.777 0.63-2.85 12.585-12.903-0.022 0.004-2.848 8.802 0.015-14.146-17.74 2.226-1.775z"></path>
</symbol>
<symbol id="icon-features-2" viewBox="0 0 32 32">
<path fill="#fb7c84" style="fill: var(--color2, #fb7c84)" d="M16.45 21.148v6.661c0 0.454-0.15 0.908-0.3 1.363h2.699c0.3 0 0.6-0.151 0.9-0.454 0.15-0.151 0.3-0.606 0.3-0.908v-13.172c0-0.303-0.15-0.606-0.3-0.908-0.3-0.303-0.6-0.454-0.9-0.454h-8.248c-0.3 0-0.6 0.151-0.9 0.454s-0.45 0.606-0.45 0.908v2.422h2.999c1.2 0 2.249 0.454 2.999 1.060 0.6 0.757 1.2 1.817 1.2 3.028zM22.899 17.061h4.949c1.2 0 2.1 0.454 2.849 1.060 0.75 0.757 1.2 1.817 1.2 3.028v6.661c0 1.060-0.45 2.12-1.2 2.877s-1.65 1.211-2.849 1.211h-23.695c-1.050 0-2.1-0.454-2.849-1.211s-1.2-1.817-1.2-2.877v-6.661c0-1.211 0.45-2.271 1.2-3.028 0.75-0.606 1.8-1.060 2.849-1.060h2.399v-2.422c0-1.060 0.45-2.12 1.2-2.877s1.8-1.211 2.849-1.211h2.999v-8.781c0-0.303 0.15-0.606 0.3-0.908 0.15-0.151 0.3-0.454 0.6-0.606 0.15-0.151 0.45-0.151 0.75-0.151s0.6 0 0.75 0.151l6.599 3.936c0.3 0.151 0.45 0.303 0.6 0.606 0.15 0.151 0.15 0.454 0.15 0.757s0 0.606-0.15 0.757c-0.15 0.303-0.45 0.606-0.75 0.757l-6.599 2.12v1.363h2.999c1.050 0 2.1 0.454 2.849 1.211s1.2 1.817 1.2 2.877v2.422zM22.599 29.172h5.249c0.45 0 0.75-0.151 0.9-0.454 0.3-0.151 0.45-0.606 0.45-0.908v-6.661c0-0.454-0.15-0.757-0.45-1.060-0.15-0.151-0.45-0.303-0.9-0.303h-4.949v8.024c0 0.454-0.15 0.908-0.3 1.363zM15.85 6.917l4.499-1.514-4.499-2.725v4.239zM6.852 29.172c-0.15-0.454-0.3-0.908-0.3-1.363v-3.179h2.699v3.179c0 0.303 0.15 0.757 0.45 0.908 0.3 0.303 0.6 0.454 0.9 0.454h1.65c0.45 0 0.75-0.151 1.050-0.454 0.15-0.151 0.3-0.606 0.3-0.908v-6.661c0-0.454-0.15-0.757-0.3-1.060-0.3-0.151-0.6-0.303-1.050-0.303h-8.098c-0.3 0-0.75 0.151-0.9 0.303-0.3 0.303-0.45 0.606-0.45 1.060v6.661c0 0.303 0.15 0.757 0.45 0.908 0.15 0.303 0.6 0.454 0.9 0.454h2.699z"></path>
</symbol>
<symbol id="icon-features-5" viewBox="0 0 32 32">
<path fill="#d4ee47" style="fill: var(--color3, #d4ee47)" d="M15.059 8.593c0 3.273-2.468 5.926-5.513 5.926s-5.513-2.653-5.513-5.926c0-3.273 2.468-5.926 5.513-5.926s5.513 2.653 5.513 5.926zM5.86 8.593c0 2.188 1.65 3.962 3.686 3.962s3.686-1.774 3.686-3.962c0-2.188-1.65-3.962-3.686-3.962s-3.686 1.774-3.686 3.962z"></path>
<path fill="#d4ee47" style="fill: var(--color3, #d4ee47)" d="M19.092 21.369c0 5.871-4.274 10.631-9.546 10.631s-9.546-4.759-9.546-10.63c0-5.871 4.274-4.677 9.546-4.677s9.546-1.194 9.546 4.677zM2.487 21.369c0 4.341 3.16 7.861 7.059 7.861s7.059-3.519 7.059-7.861-3.16-1.907-7.059-1.907c-3.898 0-7.059-2.434-7.059 1.907z"></path>
<path fill="#d4ee47" style="fill: var(--color3, #d4ee47)" d="M27.966 6.074c0 3.355-2.468 6.074-5.513 6.074s-5.513-2.719-5.513-6.074c0-3.355 2.468-6.074 5.513-6.074s5.513 2.72 5.513 6.074zM18.768 6.074c0 2.243 1.65 4.061 3.686 4.061s3.686-1.818 3.686-4.061c0-2.243-1.65-4.061-3.686-4.061s-3.686 1.818-3.686 4.061z"></path>
<path fill="#d4ee47" style="fill: var(--color3, #d4ee47)" d="M22.32 29.336c5.346 0 9.681-4.668 9.681-10.426s-4.334-4.587-9.681-4.587c-1.763 0-3.416-0.127-4.84-0.091 0.968 0.47 1.031 1.726 0.941 2.295 1.122 0.197 2.461 0.513 3.899 0.513 3.953 0 7.158-2.387 7.158 1.871s-3.205 7.709-7.158 7.709c-1.055 0-2.056-0.246-2.958-0.687-0.269 0.606-0.914 1.918-1.345 2.32 1.296 0.694 2.757 1.084 4.303 1.084z"></path>
</symbol>
<symbol id="icon-features-1" viewBox="0 0 23 32">
<path fill="#5ac4ff" style="fill: var(--color4, #5ac4ff)" d="M3.406 5.009v15.694c0 0.111 4.542 3.784 7.444 6.122l1.135 0.946 1.451-1.28c2.713-2.393 6.624-5.732 6.624-5.788v-15.694c0-0.557-0.252-1.057-0.631-1.391-0.442-0.39-1.009-0.612-1.64-0.612h-12.112c-0.631 0-1.199 0.223-1.577 0.612-0.442 0.334-0.694 0.835-0.694 1.391zM12.049 6.957l1.703 3.061c0.063 0.056 0.126 0.111 0.252 0.111l3.722 0.501c0.189 0.056 0.252 0.111 0.315 0.223 0 0.111 0 0.223-0.126 0.278l-2.713 2.393c-0.063 0.056-0.126 0.167-0.063 0.223l0.631 3.339c0 0.111-0.063 0.223-0.126 0.278-0.126 0.056-0.252 0.056-0.378 0l-3.343-1.503c-0.126-0.056-0.252-0.056-0.315 0l-3.406 1.503c-0.126 0.056-0.252 0.056-0.378 0-0.063-0.056-0.126-0.167-0.126-0.278l0.631-3.339c0.063-0.056 0-0.167-0.063-0.223l-2.713-2.393c-0.126-0.056-0.126-0.167-0.126-0.278 0.063-0.111 0.189-0.167 0.315-0.223l3.722-0.501c0.126 0 0.252-0.056 0.252-0.111l1.703-3.061c0.063-0.056 0.189-0.111 0.315-0.111s0.252 0.056 0.315 0.111zM0 20.703v-15.694c0-1.391 0.631-2.616 1.64-3.562 1.072-0.89 2.46-1.447 4.037-1.447h12.112c1.577 0 2.965 0.557 4.037 1.447 1.009 0.946 1.64 2.17 1.64 3.562v15.694c0 1.169-4.542 5.12-7.633 7.903-1.262 1.057-2.271 1.948-2.586 2.226l-1.199 1.169-1.262-1.113c-0.379-0.334-1.199-1.002-2.271-1.836-3.28-2.671-8.516-6.901-8.516-8.348v0z"></path>
</symbol>
<symbol id="icon-features-4" viewBox="0 0 32 32">
<path fill="#6ed6a4" style="fill: var(--color5, #6ed6a4)" d="M29.265 25.208c0 2.084-1.531 3.774-3.419 3.774s-3.419-1.689-3.419-3.774v-18.415c0-2.084 1.531-3.774 3.419-3.774s3.419 1.69 3.419 3.774v18.415zM25.846 0c-3.399 0-6.154 3.041-6.154 6.792v18.415c0 3.751 2.755 6.792 6.154 6.792s6.154-3.041 6.154-6.792v-18.415c0-3.751-2.755-6.792-6.154-6.792z"></path>
<path fill="#6ed6a4" style="fill: var(--color5, #6ed6a4)" d="M19.419 25.208c0 2.084-1.531 3.774-3.419 3.774s-3.419-1.689-3.419-3.774v-10.566c0-2.084 1.531-3.774 3.419-3.774s3.419 1.69 3.419 3.774v10.566zM16 7.85c-3.399 0-6.154 3.041-6.154 6.792v10.566c0 3.751 2.755 6.792 6.154 6.792s6.154-3.041 6.154-6.792v-10.566c0-3.751-2.755-6.792-6.154-6.792z"></path>
<path fill="#6ed6a4" style="fill: var(--color5, #6ed6a4)" d="M9.573 25.209c0 2.084-1.531 3.774-3.419 3.774s-3.419-1.689-3.419-3.774v-3.925c0-2.084 1.531-3.774 3.419-3.774s3.419 1.689 3.419 3.774v3.925zM6.154 14.492c-3.399 0-6.154 3.041-6.154 6.792v3.925c0 3.751 2.755 6.792 6.154 6.792s6.154-3.041 6.154-6.792v-3.925c0-3.751-2.755-6.792-6.154-6.792z"></path>
</symbol>
<symbol id="icon-features-3" viewBox="0 0 32 32">
<path fill="#ffb865" style="fill: var(--color6, #ffb865)" d="M15.952 4.186c1.432-0.966 2.864-1.825 4.295-2.47s2.864-1.181 4.2-1.503c1.814-0.322 3.245-0.322 4.391 0.107 1.241 0.43 2.1 1.289 2.673 2.47 0.477 1.074 0.573 2.362 0.382 3.866-0.382 2.040-1.432 4.51-3.245 7.302-0.286 0.43-0.573 0.859-0.954 1.289 0.382 0.537 0.668 0.966 0.954 1.396 1.814 2.792 2.864 5.262 3.245 7.302 0.191 1.396 0.095 2.792-0.382 3.866-0.573 1.074-1.432 1.933-2.673 2.362-0.954 0.43-2.1 0.537-3.532 0.322-0.095 0.107-0.095 0.107-0.191 0.215-0.668 0.752-1.623 1.289-2.577 1.289-1.050 0-1.909-0.537-2.577-1.289s-1.145-1.718-1.145-2.899c0-1.181 0.477-2.148 1.145-2.899s1.527-1.181 2.577-1.181c0.955 0 1.909 0.43 2.577 1.181 0.477 0.537 0.859 1.289 0.954 2.148 0.764 0 1.336 0 1.814-0.215 0.382-0.107 0.668-0.322 0.764-0.644 0.191-0.43 0.286-0.966 0.095-1.718-0.191-1.503-1.050-3.436-2.577-5.691-0.191-0.322-0.382-0.537-0.573-0.859-2.004 2.362-4.391 4.617-6.777 6.443-3.818 3.007-7.922 5.262-11.263 5.906-1.814 0.43-3.245 0.322-4.391-0.107-1.241-0.43-2.1-1.289-2.673-2.362-0.477-1.074-0.573-2.47-0.382-3.866 0.286-2.040 1.336-4.51 3.15-7.302 0.382-0.43 0.668-0.859 0.955-1.396-0.286-0.43-0.573-0.859-0.954-1.289-1.814-2.792-2.864-5.262-3.15-7.302-0.191-1.503-0.095-2.792 0.382-3.866 0.573-1.181 1.432-2.040 2.673-2.47 1.145-0.43 2.577-0.43 4.391-0.107 2.577 0.537 5.441 1.933 8.4 3.973zM10.702 16.428c0.859 0 1.718 0.43 2.291 1.074s0.954 1.611 0.954 2.577c0 1.074-0.382 1.933-0.954 2.577-0.573 0.752-1.432 1.074-2.291 1.074s-1.718-0.322-2.291-1.074c-0.573-0.644-0.955-1.503-0.955-2.577 0-0.322 0-0.537 0.095-0.859-0.477-0.43-0.859-0.859-1.241-1.289-0.191 0.322-0.382 0.537-0.477 0.859-1.527 2.255-2.386 4.188-2.673 5.691-0.095 0.752 0 1.289 0.095 1.718 0.191 0.322 0.477 0.537 0.859 0.644 0.668 0.215 1.623 0.322 2.864 0 2.864-0.644 6.491-2.577 10.022-5.262 2.386-1.826 4.582-3.973 6.586-6.336-2.004-2.255-4.2-4.403-6.586-6.228-3.532-2.685-7.159-4.725-10.022-5.262-1.241-0.322-2.195-0.322-2.864-0.107-0.382 0.215-0.668 0.43-0.859 0.752-0.095 0.322-0.191 0.966-0.095 1.611 0.286 1.503 1.145 3.544 2.673 5.799 0.095 0.322 0.286 0.537 0.477 0.859 0.477-0.537 0.859-0.966 1.336-1.503 0-0.215-0.095-0.537-0.095-0.752 0-1.074 0.382-2.040 1.050-2.685 0.573-0.752 1.432-1.181 2.386-1.181 0.859 0 1.718 0.43 2.386 1.181 0.573 0.644 0.955 1.611 0.955 2.685 0 0.966-0.382 1.933-0.955 2.685-0.668 0.644-1.527 1.074-2.386 1.074-0.477 0-0.954-0.107-1.336-0.322-0.382 0.537-0.859 0.966-1.241 1.396 0.382 0.537 0.764 0.966 1.241 1.396 0.286-0.107 0.668-0.215 1.050-0.215zM11.275 19.542c-0.191-0.215-0.382-0.322-0.573-0.322s-0.382 0.107-0.573 0.322c-0.095 0.107-0.191 0.322-0.191 0.537s0.095 0.43 0.191 0.644c0.191 0.107 0.382 0.215 0.573 0.215s0.382-0.107 0.573-0.215c0.095-0.215 0.191-0.43 0.191-0.644s-0.095-0.43-0.191-0.537zM23.302 26.844c-0.191-0.215-0.477-0.322-0.764-0.322-0.382 0-0.668 0.107-0.859 0.322-0.191 0.322-0.286 0.644-0.286 0.966s0.095 0.752 0.286 0.966c0.191 0.215 0.477 0.322 0.859 0.322 0.286 0 0.573-0.107 0.764-0.322 0.286-0.215 0.382-0.644 0.382-0.966s-0.095-0.644-0.382-0.966zM11.562 9.663c-0.095-0.107-0.382-0.215-0.573-0.215-0.286 0-0.477 0.107-0.668 0.215-0.095 0.215-0.191 0.43-0.191 0.752 0 0.215 0.095 0.537 0.191 0.644 0.191 0.215 0.382 0.322 0.668 0.322 0.191 0 0.477-0.107 0.573-0.322 0.191-0.107 0.286-0.43 0.286-0.644 0-0.322-0.095-0.537-0.286-0.752zM25.593 12.669c0.191-0.322 0.382-0.537 0.573-0.859 1.527-2.255 2.386-4.295 2.577-5.799 0.095-0.644 0.095-1.289-0.095-1.611-0.095-0.322-0.382-0.537-0.764-0.752-0.668-0.215-1.623-0.215-2.864 0.107-1.050 0.215-2.291 0.644-3.627 1.181-0.764 0.429-1.623 0.859-2.386 1.396 2.291 1.825 4.582 3.973 6.586 6.336z"></path>
</symbol>
<symbol id="icon-slider-control" viewBox="0 0 32 32">
<path fill="#a5a5a9" style="fill: var(--color7, #a5a5a9)" d="M32 16c0 8.837-7.163 16-16 16s-16-7.163-16-16c0-8.837 7.163-16 16-16s16 7.163 16 16z"></path>
</symbol>
<symbol id="icon-arrow-1" viewBox="0 0 30 32">
<path fill="#883cda" style="fill: var(--color8, #883cda)" d="M0.845 25.904c-0.961 0.961-0.961 2.52 0 3.481s2.52 0.961 3.481 0l-3.481-3.481zM29.415 3.276c0-1.359-1.102-2.462-2.462-2.462h-22.154c-1.359 0-2.462 1.102-2.462 2.462s1.102 2.462 2.462 2.462h19.692v19.692c0 1.36 1.102 2.462 2.462 2.462s2.462-1.102 2.462-2.462v-22.154zM4.326 29.385l24.368-24.368-3.481-3.481-24.368 24.368 3.481 3.481z"></path>
</symbol>
<symbol id="icon-burger" viewBox="0 0 70 32">
<path fill="#fff" style="fill: var(--color1, #fff)" d="M5.333 0h59.733c2.946 0 5.333 2.388 5.333 5.333s-2.388 5.333-5.333 5.333h-59.733c-2.946 0-5.333-2.388-5.333-5.333s2.388-5.333 5.333-5.333z"></path>
<path fill="#fff" style="fill: var(--color1, #fff)" d="M5.333 21.333h59.733c2.946 0 5.333 2.388 5.333 5.333s-2.388 5.333-5.333 5.333h-59.733c-2.946 0-5.333-2.388-5.333-5.333s2.388-5.333 5.333-5.333z"></path>
</symbol>
<symbol id="icon-logo" viewBox="0 0 32 32">
<path fill="#883cda" style="fill: var(--color8, #883cda)" d="M8.155 8.957c-2.279 1.044-7.075 2.101-8.025-2.022s3.545-5.923 5.911-6.307c5.056-0.582 15.922-1.802 21.99 2.336 0.511 0.398 1.266 1.103 1.893 2.018 3.495 5.717 1.71 16.077 0.856 21.034l-0.049 0.283c-0.513 2.318-2.573 6.666-6.704 5.509s-2.808-5.841-1.631-8.038c1.087-2.077 2.081-7.138 1.45-7.767-0.272-0.271-1.812-1.716-6.885 6.503-3.761 6.093-8.332 4.694-10.568 2.946l-0.517-0.508c-1.762-2.152-3.4-7.018 3.271-10.574 8.559-4.562 7.182-6.152 6.923-6.434-0.602-0.653-5.76 0.061-7.914 1.022z"></path>
</symbol>
</defs>
</svg>
