<svg aria-hidden="true" style="position: absolute; width: 0; height: 0; overflow: hidden;" version="1.1" xmlns="http://www.w3.org/2000/svg" xmlns:xlink="http://www.w3.org/1999/xlink">
<defs>
<symbol id="icon-instagram" viewBox="0 0 32 32">
<path fill-rule="evenodd" clip-rule="evenodd" d="M16 0C7.16347 0 0 7.16347 0 16C0 24.8365 7.16347 32 16 32C24.8365 32 32 24.8365 32 16C32 7.16347 24.8365 0 16 0ZM12.4822 7.5182C13.3924 7.4768 13.6833 7.46667 16.0008 7.46667H15.9981C18.3164 7.46667 18.6061 7.4768 19.5164 7.5182C20.4249 7.5598 21.0453 7.70367 21.5893 7.91467C22.1511 8.13247 22.6257 8.424 23.1004 8.89867C23.5751 9.373 23.8667 9.84907 24.0853 10.4103C24.2951 10.9529 24.4391 11.573 24.4818 12.4815C24.5227 13.3917 24.5333 13.6825 24.5333 16.0001C24.5333 18.3176 24.5227 18.6077 24.4818 19.518C24.4391 20.4261 24.2951 21.0463 24.0853 21.5891C23.8667 22.1502 23.5751 22.6263 23.1004 23.1006C22.6263 23.5753 22.1509 23.8675 21.5899 24.0855C21.0469 24.2965 20.4261 24.4403 19.5177 24.4819C18.6074 24.5234 18.3175 24.5335 15.9997 24.5335C13.6824 24.5335 13.3917 24.5234 12.4815 24.4819C11.5732 24.4403 10.9529 24.2965 10.41 24.0855C9.84907 23.8675 9.373 23.5753 8.89887 23.1006C8.42433 22.6263 8.1328 22.1502 7.91467 21.5889C7.7038 21.0463 7.56 20.4263 7.5182 19.5178C7.477 18.6076 7.46667 18.3176 7.46667 16.0001C7.46667 13.6825 7.47733 13.3915 7.51807 12.4813C7.55893 11.5732 7.70293 10.9529 7.91447 10.4101C8.13313 9.84907 8.42473 9.373 8.8994 8.89867C9.37373 8.4242 9.8498 8.1326 10.4111 7.91467C10.9537 7.70367 11.5737 7.5598 12.4822 7.5182Z" fill="white"/>
<path fill-rule="evenodd" clip-rule="evenodd" d="M15.2353 9.00213C15.3839 9.00193 15.5438 9.002 15.7163 9.00207L16.0008 9.00213C18.2792 9.00213 18.5493 9.01033 19.449 9.0512C20.281 9.08927 20.7325 9.22827 21.0333 9.34507C21.4316 9.49973 21.7155 9.68467 22.014 9.98333C22.3127 10.282 22.4975 10.5665 22.6526 10.9647C22.7694 11.2651 22.9086 11.7167 22.9465 12.5487C22.9873 13.4483 22.9962 13.7185 22.9962 15.9958C22.9962 18.2732 22.9873 18.5434 22.9465 19.443C22.9084 20.275 22.7694 20.7265 22.6526 21.027C22.4979 21.4252 22.3127 21.7088 22.014 22.0073C21.7153 22.3059 21.4317 22.4909 21.0333 22.6455C20.7329 22.7629 20.281 22.9015 19.449 22.9395C18.5494 22.9805 18.2792 22.9893 16.0008 22.9893C13.7222 22.9893 13.4521 22.9805 12.5525 22.9395C11.7205 22.9011 11.269 22.7621 10.968 22.6453C10.5698 22.4907 10.2853 22.3057 9.98666 22.0071C9.68799 21.7084 9.50313 21.4247 9.34806 21.0263C9.23126 20.7259 9.09206 20.2743 9.05419 19.4423C9.01333 18.5427 9.00513 18.2725 9.00513 15.9937C9.00513 13.7149 9.01333 13.4461 9.05419 12.5465C9.09226 11.7145 9.23126 11.263 9.34806 10.9622C9.50273 10.5639 9.68799 10.2795 9.98666 9.98087C10.2853 9.6822 10.5698 9.49727 10.968 9.34227C11.2688 9.22493 11.7205 9.08627 12.5525 9.048C13.3397 9.01247 13.6449 9.0018 15.2353 9V9.00213ZM20.5559 10.4191C19.9905 10.4191 19.5318 10.8772 19.5318 11.4427C19.5318 12.0081 19.9905 12.4667 20.5559 12.4667C21.1212 12.4667 21.5799 12.0081 21.5799 11.4427C21.5799 10.8774 21.1212 10.4187 20.5559 10.4187V10.4191ZM11.6185 15.9978C11.6185 13.5777 13.5805 11.6156 16.0006 11.6155C18.4207 11.6155 20.3823 13.5777 20.3823 15.9978C20.3823 18.4179 18.4209 20.3792 16.0008 20.3792C13.5807 20.3792 11.6185 18.4179 11.6185 15.9978Z" fill="white"/>
<path d="M16.0007 13.1562C17.5716 13.1562 18.8452 14.4297 18.8452 16.0007C18.8452 17.5716 17.5716 18.8452 16.0007 18.8452C14.4297 18.8452 13.1562 17.5716 13.1562 16.0007C13.1562 14.4297 14.4297 13.1562 16.0007 13.1562Z" fill="white"/>
</symbol>
<symbol id="icon-google" viewBox="0 0 32 32">
<path fill="#fff" style="fill: var(--color1, #fff)" d="M0 16c0-8.837 7.163-16 16-16s16 7.163 16 16c0 8.837-7.163 16-16 16s-16-7.163-16-16zM13.072 15.543v1.737h2.883c-0.116 0.745-0.871 2.186-2.883 2.186-1.736 0-3.152-1.433-3.152-3.199s1.416-3.199 3.152-3.199c0.988 0 1.649 0.42 2.026 0.782l1.38-1.325c-0.886-0.825-2.033-1.325-3.406-1.325-2.81 0-5.084 2.265-5.084 5.067s2.273 5.067 5.084 5.067c2.934 0 4.88-2.056 4.88-4.951 0-0.333-0.036-0.586-0.080-0.84h-4.8zM22.513 15.543h1.453v1.448h-1.453v1.448h-1.452v-1.448h-1.453v-1.448h1.453v-1.448h1.452v1.448z"></path>
</symbol>
<symbol id="icon-whatsapp" viewBox="0 0 32 32">
<path fill="#fff" style="fill: var(--color1, #fff)" d="M0 16c0 8.837 7.163 16 16 16s16-7.163 16-16c0-8.837-7.163-16-16-16s-16 7.163-16 16zM26.041 15.388c-0.002 5.245-4.268 9.512-9.514 9.514h-0.004c-1.592-0.001-3.157-0.4-4.547-1.158l-5.044 1.323 1.35-4.93c-0.833-1.443-1.271-3.079-1.27-4.756 0.002-5.246 4.27-9.513 9.514-9.513 2.545 0.001 4.934 0.992 6.73 2.79s2.785 4.189 2.784 6.731z"></path>
<path fill="#fff" style="fill: var(--color1, #fff)" d="M9.218 22.809l2.993-0.785 0.289 0.171c1.214 0.721 2.606 1.102 4.025 1.102h0.003c4.359 0 7.906-3.547 7.908-7.908 0.001-2.113-0.821-4.1-2.314-5.594s-3.479-2.318-5.591-2.319c-4.362 0-7.909 3.547-7.911 7.907-0.001 1.494 0.417 2.949 1.209 4.208l0.188 0.299-0.799 2.918zM20.995 17.439c0.166 0.080 0.278 0.134 0.326 0.214 0.059 0.099 0.059 0.575-0.139 1.131s-1.148 1.062-1.605 1.13c-0.41 0.061-0.928 0.087-1.497-0.094-0.345-0.11-0.788-0.256-1.355-0.501-2.229-0.962-3.735-3.122-4.019-3.531-0.020-0.029-0.034-0.049-0.042-0.059l-0.002-0.003c-0.126-0.168-0.969-1.293-0.969-2.457 0-1.095 0.538-1.669 0.786-1.933 0.017-0.018 0.033-0.035 0.046-0.050 0.218-0.238 0.476-0.297 0.634-0.297s0.317 0.002 0.456 0.008c0.017 0.001 0.035 0.001 0.053 0.001 0.139-0.001 0.311-0.002 0.482 0.407 0.066 0.158 0.162 0.391 0.263 0.637 0.204 0.498 0.431 1.048 0.47 1.128 0.059 0.119 0.099 0.258 0.020 0.416-0.012 0.024-0.023 0.046-0.033 0.068-0.059 0.121-0.103 0.211-0.204 0.329-0.040 0.046-0.081 0.096-0.122 0.146-0.082 0.1-0.164 0.199-0.235 0.27-0.119 0.119-0.243 0.247-0.104 0.485s0.616 1.016 1.322 1.647c0.76 0.678 1.42 0.964 1.755 1.109 0.065 0.028 0.118 0.051 0.157 0.071 0.238 0.119 0.376 0.099 0.515-0.060s0.594-0.694 0.753-0.932c0.158-0.238 0.317-0.198 0.535-0.119s1.387 0.654 1.624 0.773c0.046 0.023 0.090 0.044 0.13 0.064z"></path>
</symbol>
<symbol id="icon-telegram" viewBox="0 0 32 32">
<path fill="#fff" style="fill: var(--color1, #fff)" d="M0 16c0 8.837 7.163 16 16 16s16-7.163 16-16c0-8.837-7.163-16-16-16s-16 7.163-16 16zM13.067 23.333l0.272-4.078-0-0 7.419-6.695c0.326-0.289-0.071-0.43-0.503-0.168l-9.156 5.777-3.955-1.234c-0.854-0.262-0.86-0.849 0.192-1.27l15.412-5.943c0.704-0.32 1.383 0.169 1.115 1.246l-2.625 12.368c-0.183 0.879-0.714 1.089-1.45 0.683l-3.998-2.954-1.922 1.869c-0.006 0.006-0.012 0.012-0.018 0.018-0.215 0.209-0.393 0.382-0.782 0.382z"></path>
</symbol>
<symbol id="icon-twitter" viewBox="0 0 32 32">
<path fill="#fff" style="fill: var(--color1, #fff)" d="M16 0c-8.837 0-16 7.163-16 16s7.163 16 16 16c8.837 0 16-7.163 16-16s-7.163-16-16-16zM15.554 13.559l-0.034-0.554c-0.101-1.435 0.783-2.746 2.182-3.254 0.515-0.181 1.388-0.203 1.959-0.045 0.224 0.068 0.649 0.294 0.951 0.497l0.548 0.373 0.604-0.192c0.336-0.102 0.784-0.271 0.985-0.384 0.19-0.102 0.358-0.158 0.358-0.124 0 0.192-0.414 0.847-0.761 1.209-0.47 0.508-0.336 0.554 0.616 0.215 0.571-0.192 0.582-0.192 0.47 0.023-0.067 0.113-0.414 0.508-0.783 0.87-0.627 0.621-0.66 0.689-0.66 1.209 0 0.802-0.381 2.474-0.761 3.39-0.705 1.717-2.216 3.491-3.727 4.384-2.126 1.254-4.958 1.571-7.342 0.836-0.795-0.249-2.16-0.881-2.16-0.994 0-0.034 0.414-0.079 0.918-0.090 1.052-0.023 2.104-0.316 2.999-0.836l0.604-0.362-0.694-0.237c-0.985-0.339-1.869-1.119-2.093-1.853-0.067-0.237-0.045-0.249 0.582-0.249l0.649-0.011-0.548-0.26c-0.649-0.328-1.242-0.881-1.533-1.446-0.213-0.407-0.481-1.435-0.403-1.514 0.022-0.034 0.257 0.034 0.526 0.124 0.772 0.283 0.873 0.215 0.425-0.26-0.839-0.859-1.097-2.136-0.694-3.344l0.19-0.542 0.739 0.734c1.511 1.48 3.29 2.361 5.327 2.621l0.56 0.068z"></path>
</symbol>
<symbol id="icon-youtube" viewBox="0 0 32 32">
<path fill="#fff" style="fill: var(--color1, #fff)" d="M16 0c-8.837 0-16 7.163-16 16s7.163 16 16 16c8.837 0 16-7.163 16-16s-7.163-16-16-16zM22.668 10.499c0.734 0.202 1.313 0.795 1.509 1.549 0.357 1.367 0.357 4.218 0.357 4.218s0 2.851-0.357 4.218c-0.196 0.754-0.775 1.348-1.509 1.549-1.331 0.366-6.668 0.366-6.668 0.366s-5.337 0-6.668-0.366c-0.734-0.202-1.313-0.795-1.509-1.549-0.357-1.367-0.357-4.218-0.357-4.218s0-2.851 0.357-4.218c0.196-0.754 0.775-1.348 1.509-1.549 1.331-0.366 6.668-0.366 6.668-0.366s5.337 0 6.668 0.366z"></path>
<path fill="#fff" style="fill: var(--color1, #fff)" d="M14.4 19.201v-5.333l4.267 2.667-4.267 2.667z"></path>
</symbol>
<symbol id="icon-facebook" viewBox="0 0 32 32">
<path fill="#fff" style="fill: var(--color1, #fff)" d="M16 0c-8.837 0-16 7.163-16 16s7.163 16 16 16c8.837 0 16-7.163 16-16s-7.163-16-16-16zM17.668 16.703v8.705h-3.602v-8.705h-1.799v-3h1.799v-1.801c0-2.447 1.016-3.902 3.903-3.902h2.403v3h-1.502c-1.124 0-1.198 0.419-1.198 1.202l-0.004 1.501h2.721l-0.319 3h-2.403z"></path>
</symbol>
<symbol id="icon-arrow-2" viewBox="0 0 27 32">
<path d="M6.528 4.158l14.146 17.74 1.944-8.585 2.777 0.63-2.85 12.585-12.903-0.022 0.004-2.848 8.802 0.015-14.146-17.74 2.226-1.775z"></path>
</symbol>
<symbol id="icon-features-2" viewBox="0 0 32 32">
<path fill="#fb7c84" style="fill: var(--color2, #fb7c84)" d="M16.45 21.148v6.661c0 0.454-0.15 0.908-0.3 1.363h2.699c0.3 0 0.6-0.151 0.9-0.454 0.15-0.151 0.3-0.606 0.3-0.908v-13.172c0-0.303-0.15-0.606-0.3-0.908-0.3-0.303-0.6-0.454-0.9-0.454h-8.248c-0.3 0-0.6 0.151-0.9 0.454s-0.45 0.606-0.45 0.908v2.422h2.999c1.2 0 2.249 0.454 2.999 1.060 0.6 0.757 1.2 1.817 1.2 3.028zM22.899 17.061h4.949c1.2 0 2.1 0.454 2.849 1.060 0.75 0.757 1.2 1.817 1.2 3.028v6.661c0 1.060-0.45 2.12-1.2 2.877s-1.65 1.211-2.849 1.211h-23.695c-1.050 0-2.1-0.454-2.849-1.211s-1.2-1.817-1.2-2.877v-6.661c0-1.211 0.45-2.271 1.2-3.028 0.75-0.606 1.8-1.060 2.849-1.060h2.399v-2.422c0-1.060 0.45-2.12 1.2-2.877s1.8-1.211 2.849-1.211h2.999v-8.781c0-0.303 0.15-0.606 0.3-0.908 0.15-0.151 0.3-0.454 0.6-0.606 0.15-0.151 0.45-0.151 0.75-0.151s0.6 0 0.75 0.151l6.599 3.936c0.3 0.151 0.45 0.303 0.6 0.606 0.15 0.151 0.15 0.454 0.15 0.757s0 0.606-0.15 0.757c-0.15 0.303-0.45 0.606-0.75 0.757l-6.599 2.12v1.363h2.999c1.050 0 2.1 0.454 2.849 1.211s1.2 1.817 1.2 2.877v2.422zM22.599 29.172h5.249c0.45 0 0.75-0.151 0.9-0.454 0.3-0.151 0.45-0.606 0.45-0.908v-6.661c0-0.454-0.15-0.757-0.45-1.060-0.15-0.151-0.45-0.303-0.9-0.303h-4.949v8.024c0 0.454-0.15 0.908-0.3 1.363zM15.85 6.917l4.499-1.514-4.499-2.725v4.239zM6.852 29.172c-0.15-0.454-0.3-0.908-0.3-1.363v-3.179h2.699v3.179c0 0.303 0.15 0.757 0.45 0.908 0.3 0.303 0.6 0.454 0.9 0.454h1.65c0.45 0 0.75-0.151 1.050-0.454 0.15-0.151 0.3-0.606 0.3-0.908v-6.661c0-0.454-0.15-0.757-0.3-1.060-0.3-0.151-0.6-0.303-1.050-0.303h-8.098c-0.3 0-0.75 0.151-0.9 0.303-0.3 0.303-0.45 0.606-0.45 1.060v6.661c0 0.303 0.15 0.757 0.45 0.908 0.15 0.303 0.6 0.454 0.9 0.454h2.699z"></path>
</symbol>
<symbol id="icon-features-5" viewBox="0 0 32 32">
<path fill="#d4ee47" style="fill: var(--color3, #d4ee47)" d="M15.059 8.593c0 3.273-2.468 5.926-5.513 5.926s-5.513-2.653-5.513-5.926c0-3.273 2.468-5.926 5.513-5.926s5.513 2.653 5.513 5.926zM5.86 8.593c0 2.188 1.65 3.962 3.686 3.962s3.686-1.774 3.686-3.962c0-2.188-1.65-3.962-3.686-3.962s-3.686 1.774-3.686 3.962z"></path>
<path fill="#d4ee47" style="fill: var(--color3, #d4ee47)" d="M19.092 21.369c0 5.871-4.274 10.631-9.546 10.631s-9.546-4.759-9.546-10.63c0-5.871 4.274-4.677 9.546-4.677s9.546-1.194 9.546 4.677zM2.487 21.369c0 4.341 3.16 7.861 7.059 7.861s7.059-3.519 7.059-7.861-3.16-1.907-7.059-1.907c-3.898 0-7.059-2.434-7.059 1.907z"></path>
<path fill="#d4ee47" style="fill: var(--color3, #d4ee47)" d="M27.966 6.074c0 3.355-2.468 6.074-5.513 6.074s-5.513-2.719-5.513-6.074c0-3.355 2.468-6.074 5.513-6.074s5.513 2.72 5.513 6.074zM18.768 6.074c0 2.243 1.65 4.061 3.686 4.061s3.686-1.818 3.686-4.061c0-2.243-1.65-4.061-3.686-4.061s-3.686 1.818-3.686 4.061z"></path>
<path fill="#d4ee47" style="fill: var(--color3, #d4ee47)" d="M22.32 29.336c5.346 0 9.681-4.668 9.681-10.426s-4.334-4.587-9.681-4.587c-1.763 0-3.416-0.127-4.84-0.091 0.968 0.47 1.031 1.726 0.941 2.295 1.122 0.197 2.461 0.513 3.899 0.513 3.953 0 7.158-2.387 7.158 1.871s-3.205 7.709-7.158 7.709c-1.055 0-2.056-0.246-2.958-0.687-0.269 0.606-0.914 1.918-1.345 2.32 1.296 0.694 2.757 1.084 4.303 1.084z"></path>
</symbol>
<symbol id="icon-features-1" viewBox="0 0 23 32">
<path fill="#5ac4ff" style="fill: var(--color4, #5ac4ff)" d="M3.406 5.009v15.694c0 0.111 4.542 3.784 7.444 6.122l1.135 0.946 1.451-1.28c2.713-2.393 6.624-5.732 6.624-5.788v-15.694c0-0.557-0.252-1.057-0.631-1.391-0.442-0.39-1.009-0.612-1.64-0.612h-12.112c-0.631 0-1.199 0.223-1.577 0.612-0.442 0.334-0.694 0.835-0.694 1.391zM12.049 6.957l1.703 3.061c0.063 0.056 0.126 0.111 0.252 0.111l3.722 0.501c0.189 0.056 0.252 0.111 0.315 0.223 0 0.111 0 0.223-0.126 0.278l-2.713 2.393c-0.063 0.056-0.126 0.167-0.063 0.223l0.631 3.339c0 0.111-0.063 0.223-0.126 0.278-0.126 0.056-0.252 0.056-0.378 0l-3.343-1.503c-0.126-0.056-0.252-0.056-0.315 0l-3.406 1.503c-0.126 0.056-0.252 0.056-0.378 0-0.063-0.056-0.126-0.167-0.126-0.278l0.631-3.339c0.063-0.056 0-0.167-0.063-0.223l-2.713-2.393c-0.126-0.056-0.126-0.167-0.126-0.278 0.063-0.111 0.189-0.167 0.315-0.223l3.722-0.501c0.126 0 0.252-0.056 0.252-0.111l1.703-3.061c0.063-0.056 0.189-0.111 0.315-0.111s0.252 0.056 0.315 0.111zM0 20.703v-15.694c0-1.391 0.631-2.616 1.64-3.562 1.072-0.89 2.46-1.447 4.037-1.447h12.112c1.577 0 2.965 0.557 4.037 1.447 1.009 0.946 1.64 2.17 1.64 3.562v15.694c0 1.169-4.542 5.12-7.633 7.903-1.262 1.057-2.271 1.948-2.586 2.226l-1.199 1.169-1.262-1.113c-0.379-0.334-1.199-1.002-2.271-1.836-3.28-2.671-8.516-6.901-8.516-8.348v0z"></path>
</symbol>
<symbol id="icon-features-4" viewBox="0 0 32 32">
<path fill="#6ed6a4" style="fill: var(--color5, #6ed6a4)" d="M29.265 25.208c0 2.084-1.531 3.774-3.419 3.774s-3.419-1.689-3.419-3.774v-18.415c0-2.084 1.531-3.774 3.419-3.774s3.419 1.69 3.419 3.774v18.415zM25.846 0c-3.399 0-6.154 3.041-6.154 6.792v18.415c0 3.751 2.755 6.792 6.154 6.792s6.154-3.041 6.154-6.792v-18.415c0-3.751-2.755-6.792-6.154-6.792z"></path>
<path fill="#6ed6a4" style="fill: var(--color5, #6ed6a4)" d="M19.419 25.208c0 2.084-1.531 3.774-3.419 3.774s-3.419-1.689-3.419-3.774v-10.566c0-2.084 1.531-3.774 3.419-3.774s3.419 1.69 3.419 3.774v10.566zM16 7.85c-3.399 0-6.154 3.041-6.154 6.792v10.566c0 3.751 2.755 6.792 6.154 6.792s6.154-3.041 6.154-6.792v-10.566c0-3.751-2.755-6.792-6.154-6.792z"></path>
<path fill="#6ed6a4" style="fill: var(--color5, #6ed6a4)" d="M9.573 25.209c0 2.084-1.531 3.774-3.419 3.774s-3.419-1.689-3.419-3.774v-3.925c0-2.084 1.531-3.774 3.419-3.774s3.419 1.689 3.419 3.774v3.925zM6.154 14.492c-3.399 0-6.154 3.041-6.154 6.792v3.925c0 3.751 2.755 6.792 6.154 6.792s6.154-3.041 6.154-6.792v-3.925c0-3.751-2.755-6.792-6.154-6.792z"></path>
</symbol>
<symbol id="icon-features-3" viewBox="0 0 32 32">
<path fill="#ffb865" style="fill: var(--color6, #ffb865)" d="M15.952 4.186c1.432-0.966 2.864-1.825 4.295-2.47s2.864-1.181 4.2-1.503c1.814-0.322 3.245-0.322 4.391 0.107 1.241 0.43 2.1 1.289 2.673 2.47 0.477 1.074 0.573 2.362 0.382 3.866-0.382 2.040-1.432 4.51-3.245 7.302-0.286 0.43-0.573 0.859-0.954 1.289 0.382 0.537 0.668 0.966 0.954 1.396 1.814 2.792 2.864 5.262 3.245 7.302 0.191 1.396 0.095 2.792-0.382 3.866-0.573 1.074-1.432 1.933-2.673 2.362-0.954 0.43-2.1 0.537-3.532 0.322-0.095 0.107-0.095 0.107-0.191 0.215-0.668 0.752-1.623 1.289-2.577 1.289-1.050 0-1.909-0.537-2.577-1.289s-1.145-1.718-1.145-2.899c0-1.181 0.477-2.148 1.145-2.899s1.527-1.181 2.577-1.181c0.955 0 1.909 0.43 2.577 1.181 0.477 0.537 0.859 1.289 0.954 2.148 0.764 0 1.336 0 1.814-0.215 0.382-0.107 0.668-0.322 0.764-0.644 0.191-0.43 0.286-0.966 0.095-1.718-0.191-1.503-1.050-3.436-2.577-5.691-0.191-0.322-0.382-0.537-0.573-0.859-2.004 2.362-4.391 4.617-6.777 6.443-3.818 3.007-7.922 5.262-11.263 5.906-1.814 0.43-3.245 0.322-4.391-0.107-1.241-0.43-2.1-1.289-2.673-2.362-0.477-1.074-0.573-2.47-0.382-3.866 0.286-2.040 1.336-4.51 3.15-7.302 0.382-0.43 0.668-0.859 0.955-1.396-0.286-0.43-0.573-0.859-0.954-1.289-1.814-2.792-2.864-5.262-3.15-7.302-0.191-1.503-0.095-2.792 0.382-3.866 0.573-1.181 1.432-2.040 2.673-2.47 1.145-0.43 2.577-0.43 4.391-0.107 2.577 0.537 5.441 1.933 8.4 3.973zM10.702 16.428c0.859 0 1.718 0.43 2.291 1.074s0.954 1.611 0.954 2.577c0 1.074-0.382 1.933-0.954 2.577-0.573 0.752-1.432 1.074-2.291 1.074s-1.718-0.322-2.291-1.074c-0.573-0.644-0.955-1.503-0.955-2.577 0-0.322 0-0.537 0.095-0.859-0.477-0.43-0.859-0.859-1.241-1.289-0.191 0.322-0.382 0.537-0.477 0.859-1.527 2.255-2.386 4.188-2.673 5.691-0.095 0.752 0 1.289 0.095 1.718 0.191 0.322 0.477 0.537 0.859 0.644 0.668 0.215 1.623 0.322 2.864 0 2.864-0.644 6.491-2.577 10.022-5.262 2.386-1.826 4.582-3.973 6.586-6.336-2.004-2.255-4.2-4.403-6.586-6.228-3.532-2.685-7.159-4.725-10.022-5.262-1.241-0.322-2.195-0.322-2.864-0.107-0.382 0.215-0.668 0.43-0.859 0.752-0.095 0.322-0.191 0.966-0.095 1.611 0.286 1.503 1.145 3.544 2.673 5.799 0.095 0.322 0.286 0.537 0.477 0.859 0.477-0.537 0.859-0.966 1.336-1.503 0-0.215-0.095-0.537-0.095-0.752 0-1.074 0.382-2.040 1.050-2.685 0.573-0.752 1.432-1.181 2.386-1.181 0.859 0 1.718 0.43 2.386 1.181 0.573 0.644 0.955 1.611 0.955 2.685 0 0.966-0.382 1.933-0.955 2.685-0.668 0.644-1.527 1.074-2.386 1.074-0.477 0-0.954-0.107-1.336-0.322-0.382 0.537-0.859 0.966-1.241 1.396 0.382 0.537 0.764 0.966 1.241 1.396 0.286-0.107 0.668-0.215 1.050-0.215zM11.275 19.542c-0.191-0.215-0.382-0.322-0.573-0.322s-0.382 0.107-0.573 0.322c-0.095 0.107-0.191 0.322-0.191 0.537s0.095 0.43 0.191 0.644c0.191 0.107 0.382 0.215 0.573 0.215s0.382-0.107 0.573-0.215c0.095-0.215 0.191-0.43 0.191-0.644s-0.095-0.43-0.191-0.537zM23.302 26.844c-0.191-0.215-0.477-0.322-0.764-0.322-0.382 0-0.668 0.107-0.859 0.322-0.191 0.322-0.286 0.644-0.286 0.966s0.095 0.752 0.286 0.966c0.191 0.215 0.477 0.322 0.859 0.322 0.286 0 0.573-0.107 0.764-0.322 0.286-0.215 0.382-0.644 0.382-0.966s-0.095-0.644-0.382-0.966zM11.562 9.663c-0.095-0.107-0.382-0.215-0.573-0.215-0.286 0-0.477 0.107-0.668 0.215-0.095 0.215-0.191 0.43-0.191 0.752 0 0.215 0.095 0.537 0.191 0.644 0.191 0.215 0.382 0.322 0.668 0.322 0.191 0 0.477-0.107 0.573-0.322 0.191-0.107 0.286-0.43 0.286-0.644 0-0.322-0.095-0.537-0.286-0.752zM25.593 12.669c0.191-0.322 0.382-0.537 0.573-0.859 1.527-2.255 2.386-4.295 2.577-5.799 0.095-0.644 0.095-1.289-0.095-1.611-0.095-0.322-0.382-0.537-0.764-0.752-0.668-0.215-1.623-0.215-2.864 0.107-1.050 0.215-2.291 0.644-3.627 1.181-0.764 0.429-1.623 0.859-2.386 1.396 2.291 1.825 4.582 3.973 6.586 6.336z"></path>
</symbol>
<symbol id="icon-slider-control" viewBox="0 0 32 32">
<path fill="#a5a5a9" style="fill: var(--color7, #a5a5a9)" d="M32 16c0 8.837-7.163 16-16 16s-16-7.163-16-16c0-8.837 7.163-16 16-16s16 7.163 16 16z"></path>
</symbol>
<symbol id="icon-arrow-1" viewBox="0 0 30 32">
<path fill="#883cda" style="fill: var(--color8, #883cda)" d="M0.845 25.904c-0.961 0.961-0.961 2.52 0 3.481s2.52 0.961 3.481 0l-3.481-3.481zM29.415 3.276c0-1.359-1.102-2.462-2.462-2.462h-22.154c-1.359 0-2.462 1.102-2.462 2.462s1.102 2.462 2.462 2.462h19.692v19.692c0 1.36 1.102 2.462 2.462 2.462s2.462-1.102 2.462-2.462v-22.154zM4.326 29.385l24.368-24.368-3.481-3.481-24.368 24.368 3.481 3.481z"></path>
</symbol>
<symbol id="icon-burger" viewBox="0 0 70 32">
<path fill="#fff" style="fill: var(--color1, #fff)" d="M5.333 0h59.733c2.946 0 5.333 2.388 5.333 5.333s-2.388 5.333-5.333 5.333h-59.733c-2.946 0-5.333-2.388-5.333-5.333s2.388-5.333 5.333-5.333z"></path>
<path fill="#fff" style="fill: var(--color1, #fff)" d="M5.333 21.333h59.733c2.946 0 5.333 2.388 5.333 5.333s-2.388 5.333-5.333 5.333h-59.733c-2.946 0-5.333-2.388-5.333-5.333s2.388-5.333 5.333-5.333z"></path>
</symbol>
<symbol id="icon-logo" viewBox="0 0 32 32">
<path fill="#883cda" style="fill: var(--color8, #883cda)" d="M8.155 8.957c-2.279 1.044-7.075 2.101-8.025-2.022s3.545-5.923 5.911-6.307c5.056-0.582 15.922-1.802 21.99 2.336 0.511 0.398 1.266 1.103 1.893 2.018 3.495 5.717 1.71 16.077 0.856 21.034l-0.049 0.283c-0.513 2.318-2.573 6.666-6.704 5.509s-2.808-5.841-1.631-8.038c1.087-2.077 2.081-7.138 1.45-7.767-0.272-0.271-1.812-1.716-6.885 6.503-3.761 6.093-8.332 4.694-10.568 2.946l-0.517-0.508c-1.762-2.152-3.4-7.018 3.271-10.574 8.559-4.562 7.182-6.152 6.923-6.434-0.602-0.653-5.76 0.061-7.914 1.022z"></path>
</symbol>
</defs>
</svg>
